<svg preserveAspectRatio="xMidYMid meet" data-bbox="10.395 8.83 402.335 146.262" viewBox="10.395 8.83 402.335 146.262" xmlns="http://www.w3.org/2000/svg" data-type="color" role="presentation" aria-hidden="true">
    <g>
        <path d="M183.4 149.56a5.54 5.54 0 0 1-2.29-.46 4.36 4.36 0 0 1-1.74-1.43h-.14a18 18 0 0 1 .14 2.14v5.28h-1.94v-18.61H179l.27 1.76h.09a4.48 4.48 0 0 1 1.75-1.52 5.16 5.16 0 0 1 2.28-.47 4.76 4.76 0 0 1 3.95 1.74 9.28 9.28 0 0 1 0 9.82 4.75 4.75 0 0 1-3.94 1.75Zm-.28-11.66a3.45 3.45 0 0 0-2.85 1.09 5.68 5.68 0 0 0-.9 3.47v.43a6.4 6.4 0 0 0 .9 3.87 3.45 3.45 0 0 0 2.9 1.17 3 3 0 0 0 2.61-1.35 6.37 6.37 0 0 0 .94-3.71 6.17 6.17 0 0 0-.94-3.69 3.13 3.13 0 0 0-2.66-1.28Z" fill="#000000" data-color="1"></path>
        <path d="M198 136.25a7.28 7.28 0 0 1 1.54.14l-.27 1.8a7.07 7.07 0 0 0-1.41-.17 3.4 3.4 0 0 0-2.66 1.26 4.63 4.63 0 0 0-1.11 3.15v6.9h-2v-12.85h1.61l.22 2.38h.1a5.52 5.52 0 0 1 1.72-1.93 3.82 3.82 0 0 1 2.26-.68Z" fill="#000000" data-color="1"></path>
        <path d="M207.36 149.56a5.94 5.94 0 0 1-4.5-1.73 6.72 6.72 0 0 1-1.64-4.82 7.47 7.47 0 0 1 1.52-4.93 5.08 5.08 0 0 1 4.11-1.83 4.83 4.83 0 0 1 3.82 1.59 6 6 0 0 1 1.41 4.18v1.24h-8.85a5.11 5.11 0 0 0 1.14 3.43 4 4 0 0 0 3.06 1.17 10.31 10.31 0 0 0 4.1-.87v1.74a9.26 9.26 0 0 1-4.17.83Zm-.53-11.68a3.2 3.2 0 0 0-2.47 1 4.71 4.71 0 0 0-1.08 2.79H210a4.29 4.29 0 0 0-.82-2.82 2.88 2.88 0 0 0-2.35-.97Z" fill="#000000" data-color="1"></path>
        <path d="m218.21 149.33-4.88-12.85h2.09l2.76 7.62a35.71 35.71 0 0 1 1.11 3.47h.09c.09-.42.36-1.27.81-2.57s1.49-4.14 3.08-8.52h2.09l-4.88 12.85Z" fill="#000000" data-color="1"></path>
        <path d="M227.25 133a1.3 1.3 0 0 1 .33-1 1.18 1.18 0 0 1 .82-.31 1.13 1.13 0 0 1 .81.32 1.24 1.24 0 0 1 .34 1 1.28 1.28 0 0 1-.34 1 1.2 1.2 0 0 1-1.63 0 1.32 1.32 0 0 1-.33-1.01Zm2.11 16.33h-1.94v-12.85h1.94Z" fill="#000000" data-color="1"></path>
        <path d="M244.57 142.89a7.07 7.07 0 0 1-1.57 4.91 5.58 5.58 0 0 1-4.37 1.76 5.78 5.78 0 0 1-3.06-.81 5.36 5.36 0 0 1-2.06-2.32 8.16 8.16 0 0 1-.73-3.54 7.11 7.11 0 0 1 1.57-4.89 5.55 5.55 0 0 1 4.36-1.75A5.43 5.43 0 0 1 243 138a7 7 0 0 1 1.57 4.89Zm-9.78 0a6.14 6.14 0 0 0 1 3.75 3.91 3.91 0 0 0 5.8 0 6.09 6.09 0 0 0 1-3.76 6 6 0 0 0-1-3.72 4 4 0 0 0-5.81 0 6.05 6.05 0 0 0-.99 3.73Z" fill="#000000" data-color="1"></path>
        <path d="M249.81 136.48v8.33a3.36 3.36 0 0 0 .72 2.35 2.92 2.92 0 0 0 2.24.77 3.65 3.65 0 0 0 2.94-1.1 5.57 5.57 0 0 0 .94-3.6v-6.75h1.94v12.85H257l-.29-1.73h-.1a3.87 3.87 0 0 1-1.66 1.46 5.66 5.66 0 0 1-2.42.5 4.93 4.93 0 0 1-3.51-1.11 4.75 4.75 0 0 1-1.17-3.57v-8.4Z" fill="#000000" data-color="1"></path>
        <path d="M271 145.82a3.2 3.2 0 0 1-1.34 2.77 6.27 6.27 0 0 1-3.75 1 8.12 8.12 0 0 1-4-.81V147a9.25 9.25 0 0 0 2 .73 8.24 8.24 0 0 0 2 .27 4.71 4.71 0 0 0 2.35-.48 1.68 1.68 0 0 0 .17-2.77 10.76 10.76 0 0 0-2.54-1.26 13.37 13.37 0 0 1-2.55-1.16 3.68 3.68 0 0 1-1.13-1.13 3.05 3.05 0 0 1-.36-1.52 2.87 2.87 0 0 1 1.27-2.47 5.92 5.92 0 0 1 3.51-.91 10.28 10.28 0 0 1 4.05.84l-.69 1.58a9.32 9.32 0 0 0-3.5-.79 4 4 0 0 0-2.09.43 1.34 1.34 0 0 0-.7 1.2 1.4 1.4 0 0 0 .26.87 2.59 2.59 0 0 0 .85.7 20.22 20.22 0 0 0 2.25.94 8.61 8.61 0 0 1 3.09 1.68 3 3 0 0 1 .85 2.07Z" fill="#000000" data-color="1"></path>
        <path d="M276.11 149.33h-1.95v-18.24h1.95Z" fill="#000000" data-color="1"></path>
        <path d="M278.2 136.48h2.08l2.81 7.33a27.27 27.27 0 0 1 1.15 3.62h.1c.1-.4.31-1.08.64-2.05s1.38-3.93 3.18-8.9h2.08l-5.52 14.63a7.2 7.2 0 0 1-1.91 3.07 4.06 4.06 0 0 1-2.69.91 8 8 0 0 1-1.76-.2v-1.56a6.4 6.4 0 0 0 1.44.14 3 3 0 0 0 2.86-2.25l.72-1.82Z" fill="#000000" data-color="1"></path>
        <path d="M308.52 144.77a4.18 4.18 0 0 1-1.64 3.52 7 7 0 0 1-4.45 1.27 11.08 11.08 0 0 1-4.69-.79v-1.92a12.89 12.89 0 0 0 2.3.71 12.23 12.23 0 0 0 2.46.25 5 5 0 0 0 3-.75 2.5 2.5 0 0 0 1-2.11 2.64 2.64 0 0 0-.36-1.45 3.38 3.38 0 0 0-1.19-1.05 16.25 16.25 0 0 0-2.55-1.09 8.1 8.1 0 0 1-3.42-2 4.49 4.49 0 0 1-1-3.06 3.8 3.8 0 0 1 1.48-3.15 6.22 6.22 0 0 1 3.94-1.17 11.7 11.7 0 0 1 4.7.93l-.62 1.74a10.5 10.5 0 0 0-4.13-.89 4 4 0 0 0-2.47.68 2.24 2.24 0 0 0-.89 1.88 2.87 2.87 0 0 0 .33 1.46 3.14 3.14 0 0 0 1.11 1.05 14.1 14.1 0 0 0 2.38 1 9.5 9.5 0 0 1 3.71 2.07 4 4 0 0 1 1 2.87Z" fill="#000000" data-color="1"></path>
        <path d="M317.71 149.56a5.54 5.54 0 0 1-2.29-.46 4.36 4.36 0 0 1-1.74-1.43h-.14a18 18 0 0 1 .14 2.14v5.28h-1.94v-18.61h1.58l.27 1.76h.09a4.48 4.48 0 0 1 1.75-1.52 5.16 5.16 0 0 1 2.28-.47 4.78 4.78 0 0 1 4 1.74 9.34 9.34 0 0 1 0 9.82 4.75 4.75 0 0 1-4 1.75Zm-.28-11.66a3.45 3.45 0 0 0-2.85 1.09 5.68 5.68 0 0 0-.9 3.47v.43a6.4 6.4 0 0 0 .9 3.87 3.43 3.43 0 0 0 2.9 1.17 3 3 0 0 0 2.6-1.35 6.36 6.36 0 0 0 .95-3.71 6.17 6.17 0 0 0-.95-3.69 3.1 3.1 0 0 0-2.65-1.28Z" fill="#000000" data-color="1"></path>
        <path d="M331.87 149.56a5.94 5.94 0 0 1-4.5-1.73 6.77 6.77 0 0 1-1.64-4.82 7.42 7.42 0 0 1 1.53-4.93 5.08 5.08 0 0 1 4.1-1.83 4.83 4.83 0 0 1 3.82 1.59 6 6 0 0 1 1.41 4.18v1.24h-8.85a5.06 5.06 0 0 0 1.15 3.43 4 4 0 0 0 3.05 1.17A10.31 10.31 0 0 0 336 147v1.74a11 11 0 0 1-2 .64 10.86 10.86 0 0 1-2.13.18Zm-.53-11.68a3.2 3.2 0 0 0-2.47 1 4.71 4.71 0 0 0-1.08 2.79h6.71a4.29 4.29 0 0 0-.82-2.82 2.87 2.87 0 0 0-2.34-.97Z" fill="#000000" data-color="1"></path>
        <path d="M345.33 149.56a5.91 5.91 0 0 1-4.49-1.73 6.73 6.73 0 0 1-1.65-4.82 7.42 7.42 0 0 1 1.53-4.93 5.08 5.08 0 0 1 4.11-1.83 4.84 4.84 0 0 1 3.82 1.59 6 6 0 0 1 1.41 4.18v1.24h-8.85a5.11 5.11 0 0 0 1.14 3.43 4 4 0 0 0 3 1.17 10.28 10.28 0 0 0 4.1-.87v1.74a10.54 10.54 0 0 1-1.95.64 10.86 10.86 0 0 1-2.17.19Zm-.52-11.68a3.17 3.17 0 0 0-2.47 1 4.72 4.72 0 0 0-1.09 2.79H348a4.29 4.29 0 0 0-.82-2.82 2.89 2.89 0 0 0-2.37-.97Z" fill="#000000" data-color="1"></path>
        <path d="M358.5 149.56a5.46 5.46 0 0 1-4.31-1.72 7 7 0 0 1-1.53-4.85 7.25 7.25 0 0 1 1.55-5 5.56 5.56 0 0 1 4.42-1.76 8.41 8.41 0 0 1 1.86.2 6 6 0 0 1 1.45.47l-.6 1.65a9 9 0 0 0-1.41-.43 6.37 6.37 0 0 0-1.34-.17q-3.91 0-3.92 5a5.9 5.9 0 0 0 1 3.63 3.3 3.3 0 0 0 2.83 1.27 8.64 8.64 0 0 0 3.29-.69v1.72a7 7 0 0 1-3.29.68Z" fill="#000000" data-color="1"></path>
        <path d="M373.59 149.33V141a3.36 3.36 0 0 0-.72-2.35 2.92 2.92 0 0 0-2.24-.77 3.7 3.7 0 0 0-3 1.1 5.6 5.6 0 0 0-.93 3.61v6.72h-1.9v-18.22h1.94v5.52a12.45 12.45 0 0 1-.09 1.65h.12a4 4 0 0 1 1.63-1.46 5.38 5.38 0 0 1 2.42-.53 4.92 4.92 0 0 1 3.53 1.12 4.7 4.7 0 0 1 1.18 3.56v8.38Z" fill="#000000" data-color="1"></path>
        <path d="M379.36 133a1.3 1.3 0 0 1 .33-1 1.21 1.21 0 0 1 1.63 0 1.24 1.24 0 0 1 .34 1 1.28 1.28 0 0 1-.34 1 1.17 1.17 0 0 1-.81.32 1.14 1.14 0 0 1-.82-.32 1.32 1.32 0 0 1-.33-1Zm2.11 16.33h-1.94v-12.85h1.94Z" fill="#000000" data-color="1"></path>
        <path d="M391.39 138h-3.27v11.34h-1.95V138h-2.29v-.88l2.29-.7v-.71q0-4.74 4.14-4.74a8.61 8.61 0 0 1 2.39.41l-.5 1.56a6.49 6.49 0 0 0-1.93-.36 1.85 1.85 0 0 0-1.62.73 4 4 0 0 0-.53 2.35v.83h3.27Z" fill="#000000" data-color="1"></path>
        <path d="m404.79 149.33-2.13-5.45h-6.87l-2.11 5.45h-2l6.77-17.21h1.68l6.74 17.21Zm-2.79-7.25-2-5.31a26 26 0 0 1-.8-2.47 21.37 21.37 0 0 1-.74 2.47l-2 5.31Z" fill="#000000" data-color="1"></path>
        <path d="M409.21 149.33v-17.14h2v17.14Z" fill="#000000" data-color="1"></path>
        <path d="M172.36 76.9c0 20.49-17.58 37.1-39.28 37.1a41.25 41.25 0 0 1-16-3.19 44.23 44.23 0 0 1-8.33 5.45 28.7 28.7 0 0 1-12.52 3.45 2.51 2.51 0 0 1-2.23-1.77 3.2 3.2 0 0 1 .52-3.1h.05c0-.06.11-.13.2-.25s.43-.56.75-1a33.52 33.52 0 0 0 2.33-3.86 28.68 28.68 0 0 0 3.29-11.22 35.42 35.42 0 0 1-7.35-21.61c0-20.5 17.59-37.1 39.29-37.1s39.28 16.6 39.28 37.1Z" fill="#f4ce45" data-color="2"></path>
        <path d="M227.61 87.72a10.53 10.53 0 0 0-4.1-8.92q-4.11-3.1-14.77-6.56a103.46 103.46 0 0 1-16.88-6.81q-17-9.15-17-24.67a24 24 0 0 1 4.55-14.39 29.6 29.6 0 0 1 13.06-9.88 49.11 49.11 0 0 1 19.1-3.56 44.68 44.68 0 0 1 19 3.87 30.26 30.26 0 0 1 12.95 10.9 28.5 28.5 0 0 1 4.61 16h-20.5q0-6.84-4.31-10.63t-12.1-3.8q-7.52 0-11.69 3.18a10 10 0 0 0-4.17 8.37q0 4.86 4.89 8.14t14.39 6.15q17.49 5.27 25.5 13.06a26 26 0 0 1 8 19.41q0 12.93-9.77 20.27t-26.32 7.35a50.86 50.86 0 0 1-20.92-4.2c-6.29-2.81-9.74-4.82-13-9.7a51.07 51.07 0 0 0 6-18.78h8.29Q192.4 99 212.09 99q7.32 0 11.42-3a9.68 9.68 0 0 0 4.1-8.28Z" fill="#000000" data-color="1"></path>
        <path d="M281.14 47.93a24.69 24.69 0 0 1 19.76-9.43q24.06 0 24.4 28v47.37h-19.76V67q0-6.36-2.73-9.4t-9.09-3q-8.69 0-12.58 6.7v52.57h-19.76V8.83h19.76Z" fill="#000000" data-color="1"></path>
        <path d="M84.33 99.07a41.31 41.31 0 0 1-4.55-18.71A40.87 40.87 0 0 1 81 70.61a26.59 26.59 0 0 0-2.22-2.44q-8-7.8-25.5-13.06-9.51-2.86-14.41-6.11T34 40.82a10 10 0 0 1 4.17-8.37q4.17-3.18 11.69-3.18 7.78 0 12.1 3.8t4.3 10.63h20.5a28.58 28.58 0 0 0-4.61-16 30.29 30.29 0 0 0-13-10.9 44.64 44.64 0 0 0-19-3.87 49.16 49.16 0 0 0-19.11 3.56A29.71 29.71 0 0 0 18 26.37a24 24 0 0 0-4.54 14.39q0 15.51 17 24.67a104 104 0 0 0 16.89 6.81Q58 75.69 62.08 78.8t4.1 8.92a9.65 9.65 0 0 1-4.1 8.3Q58 99 50.67 99 31 99 31 82.52H10.4a29.48 29.48 0 0 0 5 17A33.17 33.17 0 0 0 29.75 111a50.86 50.86 0 0 0 20.92 4.2q16.53 0 26.31-7.35a23.82 23.82 0 0 0 7.35-8.78Z" fill="#f4ce45" data-color="2"></path>
        <path d="M397.86 40.33v7.6l-.26-.27q-9.48-9.16-24.44-9.16a35.54 35.54 0 0 0-18.49 4.72 31.05 31.05 0 0 0-12.21 13.33 43.93 43.93 0 0 0-4.23 19.62v.89q0 17.63 9.53 27.89t25.53 10.25q15.22 0 24.57-9.33v9.46h14.87v-75Zm-13.35 53.43a13.11 13.11 0 0 1-11.22 5.51q-7.38 0-11.34-5.58t-4-16.12q0-11.85 4-17.49a12.88 12.88 0 0 1 11.21-5.65 13.12 13.12 0 0 1 11.35 5.68q4 5.69 4 16 .03 12.14-4 17.65Z" fill="#000000" data-color="1"></path>
    </g>
</svg>